<svg width="397" height="978" viewBox="0 0 397 978" fill="none" xmlns="http://www.w3.org/2000/svg">
<path d="M80.3413 331.43C56.4244 321.11 38.5 312 38.5 312V390L141 499.5L202 520.5L310 470.5L363.5 377L373.5 350.5C373.5 350.5 353.012 339.331 331.66 331.43C324.272 328.696 316.782 326.354 310 325C267.406 316.497 237.519 334.3 206 346.162C183.299 354.705 159.751 360.167 130 350.5C113.065 344.998 95.4996 337.97 80.3413 331.43Z" fill="#F9F0A0"/>
<path d="M130 350.5C159.751 360.167 183.299 354.705 206 346.162C174.481 334.3 144.594 316.497 102 325C95.2186 326.354 87.7282 328.696 80.3413 331.43C95.4996 337.97 113.065 344.998 130 350.5Z" fill="#EDDF61"/>
<path d="M373.5 350.5L374 326C374 326 355.58 321.223 331.66 331.43C353.012 339.331 373.5 350.5 373.5 350.5Z" fill="#EDDF61"/>
<path fill-rule="evenodd" clip-rule="evenodd" d="M307.17 435.827C282.75 463.308 247.495 485.616 198.076 500.682V977.041H365.149C368.769 977.041 371.703 974.106 371.703 970.487C371.703 962.214 365.536 955.239 357.326 954.226L279.502 944.621C244.424 940.292 218.076 910.493 218.076 875.148V608.642C218.076 565.47 246.961 528.959 283.808 506.463C304.497 493.832 322.212 479.118 337.071 462.396C368.49 427.036 385.979 384.002 392.78 335.949C406.234 240.892 378.14 124.126 331.455 0L294.016 0C340.273 122.988 365.141 245.803 353.175 330.343C347.267 372.088 332.45 407.376 307.17 435.827Z" fill="#E6EDEF"/>
<path d="M116.65 944.621L38.8269 954.226C30.6163 955.239 24.4491 962.214 24.4491 970.487C24.4491 974.106 27.3834 977.041 31.0029 977.041H198.076V500.682C148.658 485.616 113.402 463.308 88.9828 435.827C63.7021 407.376 48.8858 372.088 42.9774 330.343C31.0119 245.803 55.8798 122.988 102.137 0L64.6971 0C18.012 124.126 -10.0818 240.892 3.37211 335.949C10.1734 384.002 27.6621 427.036 59.0818 462.396C73.9401 479.118 91.6557 493.832 112.344 506.463C149.192 528.959 178.076 565.47 178.076 608.642V875.148C178.076 910.493 151.728 940.292 116.65 944.621Z" fill="white"/>
<path d="M198.076 500.682C247.495 485.616 282.75 463.308 307.17 435.827C332.45 407.376 347.267 372.088 353.175 330.343C365.141 245.803 340.273 122.988 294.016 0H102.137C55.8798 122.988 31.0119 245.803 42.9774 330.343C48.8858 372.088 63.7021 407.376 88.9828 435.827C113.402 463.308 148.658 485.616 198.076 500.682Z" fill="#F2F4F4" fill-opacity="0.15"/>
</svg>
