<svg width="984" height="984" viewBox="0 0 984 984" fill="none" xmlns="http://www.w3.org/2000/svg">
<circle cx="492" cy="492" r="492" fill="white"/>
<circle cx="492" cy="492" r="379" fill="white" stroke="#E9E9E9" stroke-width="20"/>
<path d="M302.723 421.564C332.678 339.434 276.03 271.149 324.425 198.531C392.064 97.0344 562.764 14.7907 624.798 119.871C663.139 184.818 550.636 261.678 606.055 312.537C648.237 351.247 699.673 300.638 751.556 324.485C890.743 388.457 834.038 589.777 751.556 719.772C669.005 849.877 475.96 1016.46 395.449 885.056C361.557 829.742 406.696 776.526 375.227 719.772C331.351 640.643 193.048 695.876 173.992 607.26C155.391 520.765 272.429 504.623 302.723 421.564Z" fill="#956F5A"/>
<path d="M279 555.5L290 491.5H334.5C331.802 510.664 331.353 520.467 334.5 534.5C312.448 547.351 300.17 553.534 279 555.5Z" fill="#FD9385"/>
<path d="M752.5 506.5L794.5 463L809.5 476.5L794.5 506.5H752.5Z" fill="#FD9385"/>
<path d="M472.5 776.5C458.551 783.682 450.406 785.837 435.5 787.5C430.567 819.926 430.489 834.667 435.5 854.5C456.745 849.33 463.669 840.195 472.5 819.5C472.5 819.5 486.449 769.318 472.5 776.5Z" fill="#FD9385"/>
<path d="M683.642 652.087C592 614 630.993 696.888 631.427 735.226C631.633 753.399 702.631 903.709 557.625 798.196C555.025 796.304 552.328 794.341 549.459 792.342L577.393 657.131C530.655 713.805 531.656 825.042 531.656 825.042C591.669 856.246 609.698 860.022 660.455 856.274C761.605 789.763 669.36 777.851 675.066 727.601L683.642 652.087Z" fill="#4C3F37"/>
<path d="M373 295.502C351.724 271.17 292 278.502 292 278.502C303.535 285.9 314.97 292.423 325.851 298.631C368.719 323.086 402.997 342.641 401 391.502C399.124 437.407 359.746 431.953 328.5 455C297.124 478.143 340.342 492.217 360.5 489.502C400.861 484.065 414.009 455.174 447.5 432.002C470.709 415.944 424.998 354.967 373 295.502Z" fill="#4D3F37"/>
<path d="M534.5 423C554.572 455.666 584.956 470.257 623 465.5C635.329 463.958 643.173 444.737 650.304 427.263C660.766 401.625 669.693 379.75 689 423C718.315 488.671 708.663 505.689 693.895 531.726C692.308 534.523 679.663 513.923 678 517H551.5C613.086 557.045 723.5 554.5 723.5 554.5C747.732 491.35 749.451 473.01 740 423C662.5 330 661.073 423 610.5 423H534.5Z" fill="#4C3F37"/>
<path d="M431.5 506.547C459.299 564.626 468.026 597.158 452 655.047C421.247 663.503 404.701 670.348 353.5 617.059L371.5 669.547C415.86 700.161 440.827 705.697 485.5 700.047C503.116 637.101 495.998 600.14 476.5 533.547L431.5 506.547Z" fill="#4C3F37"/>
<path d="M523.5 174C551.298 232.079 560.026 264.611 544 322.5C513.247 330.956 496.701 337.801 445.5 284.512L463.5 337C507.86 367.613 532.827 373.15 577.5 367.5C595.115 304.554 587.998 267.593 568.5 201L523.5 174Z" fill="#4C3F37"/>
<path fill-rule="evenodd" clip-rule="evenodd" d="M265.5 256.002C228.809 294.221 217.656 315.691 215 354.002C234.133 400.628 253.235 425.361 302 467.002C303.116 466.177 304.24 465.348 305.371 464.514C336.617 441.467 372.624 414.908 374.5 369.002C376.497 320.142 342.219 300.587 299.351 276.131C288.47 269.924 277.035 263.4 265.5 256.002Z" fill="#BA837A"/>
<path fill-rule="evenodd" clip-rule="evenodd" d="M508 400.5L525 505.501L662.5 518.001C664.162 514.924 665.808 512.023 667.395 509.226C682.163 483.189 691.815 466.172 662.5 400.5C643.193 357.25 634.266 379.126 623.804 404.763C616.673 422.237 608.829 441.459 596.5 443C558.456 447.758 528.072 433.166 508 400.5Z" fill="#BA837A"/>
<path d="M346.5 273.002C325.224 248.671 265.5 256.002 265.5 256.002C277.035 263.4 288.47 269.924 299.351 276.131C342.219 300.587 376.497 320.142 374.5 369.002C372.624 414.908 336.617 441.467 305.371 464.514C304.24 465.348 303.116 466.177 302 467.002C302 467.002 321.615 468.671 334 467.002C374.361 461.565 387.509 432.674 421 409.502C444.209 393.445 398.498 332.467 346.5 273.002Z" fill="#A27D69"/>
<path d="M508 400.5C528.072 433.166 558.456 447.758 596.5 443C608.829 441.459 616.673 422.237 623.804 404.763C634.266 379.126 643.193 357.25 662.5 400.5C691.815 466.172 682.163 483.189 667.395 509.226C665.808 512.023 664.162 514.924 662.5 518.001L525 505.501C586.586 545.546 697 532 697 532C721.232 468.85 722.951 450.51 713.5 400.5C636 307.5 634.573 400.5 584 400.5H508Z" fill="#A17D69"/>
<path d="M313 511.047C335.499 547.228 339.328 565.673 327 594.559C378.201 647.848 394.747 641.004 425.5 632.547C441.526 574.659 432.799 542.127 405 484.047C362.659 479.758 343.333 487.558 313 511.047Z" fill="#BA837A"/>
<path d="M405 484.047C432.799 542.127 441.526 574.659 425.5 632.547C394.747 641.004 378.201 647.848 327 594.559L345 647.047C389.36 677.661 414.327 683.198 459 677.547C476.616 614.601 469.498 577.64 450 511.047L405 484.047Z" fill="#A17D69"/>
<path d="M405 178.5C427.499 214.681 431.328 233.125 419 262.012C470.201 315.301 486.747 308.456 517.5 300C533.526 242.111 524.798 209.579 497 151.5C454.659 147.211 435.333 155.011 405 178.5Z" fill="#BA837A"/>
<path d="M497 151.5C524.798 209.579 533.526 242.111 517.5 300C486.747 308.456 470.201 315.301 419 262.012L437 314.5C481.36 345.114 506.327 350.65 551 345C568.615 282.054 561.498 245.093 542 178.5L497 151.5Z" fill="#A17D69"/>
<path fill-rule="evenodd" clip-rule="evenodd" d="M660.204 631.653L553.955 636.697L526.021 771.908C528.89 773.908 531.587 775.87 534.187 777.762C558.391 795.374 574.211 806.885 642.771 785.166C687.923 770.863 667.194 759.525 642.901 746.236C626.343 737.18 608.13 727.217 607.989 714.792C607.555 676.455 625.481 647.911 660.204 631.653Z" fill="#BA837A"/>
<path d="M660.204 631.653C625.481 647.911 607.555 676.455 607.989 714.792C608.13 727.217 626.343 737.18 642.901 746.236C667.194 759.525 687.923 770.863 642.771 785.166C574.211 806.885 558.391 795.374 534.187 777.762C531.587 775.87 528.89 773.908 526.021 771.908L553.955 636.697C507.217 693.371 508.218 804.608 508.218 804.608C568.231 835.812 586.26 839.588 637.016 835.841C738.167 769.329 645.922 757.418 651.628 707.168L660.204 631.653Z" fill="#A17D69"/>
<circle cx="484" cy="429" r="17" fill="#73A273"/>
<circle cx="574" cy="586" r="17" fill="#73A273"/>
<circle cx="450" cy="739" r="17" fill="#73A273"/>
</svg>
