<svg width="397" height="978" viewBox="0 0 397 978" fill="none" xmlns="http://www.w3.org/2000/svg">
<path d="M331.473 319.053C325.229 320.687 319.027 322.17 313.5 323.25C256.295 334.423 226 333 164.25 323.25C153.684 321.582 142.774 320.199 131.947 319.053C79.4988 324.605 29 324.605 29 324.605L72.5 448.5L155 517L232 521.5L341 430.5L372 331.105C372 331.105 351.518 324.3 331.473 319.053Z" fill="#FFF8AF"/>
<path d="M164.25 323.25C226 333 256.295 334.423 313.5 323.25C319.027 322.17 325.229 320.687 331.473 319.053C325.229 317.418 319.027 315.935 313.5 314.855C256.295 303.682 226 305.105 164.25 314.855C153.684 316.523 142.774 317.906 131.947 319.053C142.774 320.199 153.684 321.582 164.25 323.25Z" fill="#EEE69A"/>
<path d="M372 331.105V307C372 307 351.518 313.805 331.473 319.053C351.518 324.3 372 331.105 372 331.105Z" fill="#FDF7B9"/>
<path d="M29 313.5V324.605C29 324.605 79.4988 324.605 131.947 319.053C79.4988 313.5 29 313.5 29 313.5Z" fill="#FDF7B9"/>
<circle cx="138.5" cy="438.5" r="3.5" fill="white" fill-opacity="0.65"/>
<circle cx="138.5" cy="425.667" r="3.5" fill="white" fill-opacity="0.65"/>
<circle cx="138.5" cy="409.333" r="3.5" fill="white" fill-opacity="0.65"/>
<circle cx="138.5" cy="396.5" r="3.5" fill="white" fill-opacity="0.65"/>
<circle cx="138.5" cy="387.167" r="3.5" fill="white" fill-opacity="0.65"/>
<circle cx="292.5" cy="337.5" r="3.5" fill="white" fill-opacity="0.65"/>
<circle cx="320.5" cy="349.5" r="3.5" fill="white" fill-opacity="0.65"/>
<circle cx="314.5" cy="379.5" r="3.5" fill="white" fill-opacity="0.65"/>
<circle cx="82.5" cy="319.5" r="3.5" fill="white" fill-opacity="0.65"/>
<circle cx="56.5" cy="319.5" r="3.5" fill="white" fill-opacity="0.65"/>
<circle cx="68.5" cy="341.5" r="3.5" fill="white" fill-opacity="0.65"/>
<circle cx="123.5" cy="379.5" r="3.5" fill="white" fill-opacity="0.65"/>
<circle cx="138.5" cy="374.333" r="3.5" fill="white" fill-opacity="0.65"/>
<circle cx="152.5" cy="336.5" r="3.5" fill="white" fill-opacity="0.65"/>
<circle cx="200.5" cy="332.5" r="3.5" fill="white" fill-opacity="0.65"/>
<circle cx="142.5" cy="331.5" r="3.5" fill="white" fill-opacity="0.65"/>
<circle cx="283" cy="412" r="3" fill="white" fill-opacity="0.65"/>
<circle cx="283" cy="401" r="3" fill="white" fill-opacity="0.65"/>
<circle cx="283" cy="387" r="3" fill="white" fill-opacity="0.65"/>
<circle cx="283" cy="376" r="3" fill="white" fill-opacity="0.65"/>
<circle cx="283" cy="368" r="3" fill="white" fill-opacity="0.65"/>
<circle cx="283" cy="357" r="3" fill="white" fill-opacity="0.65"/>
<circle cx="283" cy="346" r="3" fill="white" fill-opacity="0.65"/>
<circle cx="112" cy="415" r="2" fill="white" fill-opacity="0.65"/>
<circle cx="141" cy="415" r="2" fill="white" fill-opacity="0.65"/>
<path d="M159 415C159 416.105 158.105 417 157 417C155.895 417 155 416.105 155 415C155 413.895 155.895 413 157 413C158.105 413 159 413.895 159 415Z" fill="white" fill-opacity="0.65"/>
<circle cx="157" cy="394" r="2" fill="white" fill-opacity="0.65"/>
<circle cx="209" cy="394" r="2" fill="white" fill-opacity="0.65"/>
<circle cx="173.5" cy="416.5" r="3.5" fill="white" fill-opacity="0.65"/>
<circle cx="104.5" cy="388.5" r="3.5" fill="white" fill-opacity="0.65"/>
<circle cx="204" cy="405" r="3" fill="white" fill-opacity="0.65"/>
<circle cx="204" cy="391" r="3" fill="white" fill-opacity="0.65"/>
<circle cx="204" cy="380" r="3" fill="white" fill-opacity="0.65"/>
<circle cx="214" cy="372" r="3" fill="white" fill-opacity="0.65"/>
<circle cx="204" cy="361" r="3" fill="white" fill-opacity="0.65"/>
<circle cx="204" cy="350" r="3" fill="white" fill-opacity="0.65"/>
<circle cx="249.5" cy="392.333" r="2.5" fill="white" fill-opacity="0.65"/>
<circle cx="249.5" cy="380.667" r="2.5" fill="white" fill-opacity="0.65"/>
<circle cx="299.5" cy="380.667" r="2.5" fill="white" fill-opacity="0.65"/>
<circle cx="270.5" cy="380.667" r="2.5" fill="white" fill-opacity="0.65"/>
<circle cx="265.5" cy="339.5" r="2.5" fill="white" fill-opacity="0.65"/>
<circle cx="208.5" cy="339.5" r="2.5" fill="white" fill-opacity="0.65"/>
<circle cx="145.5" cy="323.5" r="2.5" fill="white" fill-opacity="0.65"/>
<circle cx="2.5" cy="2.5" r="2.5" transform="matrix(1 0 0 -1 117 323)" fill="white" fill-opacity="0.65"/>
<circle cx="275.5" cy="339.5" r="2.5" fill="white" fill-opacity="0.65"/>
<circle cx="285.5" cy="337.5" r="2.5" fill="white" fill-opacity="0.65"/>
<circle cx="160.5" cy="339.5" r="2.5" fill="white" fill-opacity="0.65"/>
<circle cx="218.5" cy="339.5" r="2.5" fill="white" fill-opacity="0.65"/>
<circle cx="2.5" cy="2.5" r="2.5" transform="matrix(1 0 0 -1 127 323)" fill="white" fill-opacity="0.65"/>
<circle cx="163.5" cy="325.5" r="2.5" fill="white" fill-opacity="0.65"/>
<circle cx="278.5" cy="332.5" r="2.5" fill="white" fill-opacity="0.65"/>
<circle cx="221.5" cy="332.5" r="2.5" fill="white" fill-opacity="0.65"/>
<circle cx="155.5" cy="328.5" r="2.5" fill="white" fill-opacity="0.65"/>
<circle cx="2.5" cy="2.5" r="2.5" transform="matrix(1 0 0 -1 130 330)" fill="white" fill-opacity="0.65"/>
<circle cx="2.5" cy="2.5" r="2.5" transform="matrix(1 0 0 -1 120 326)" fill="white" fill-opacity="0.65"/>
<circle cx="2.5" cy="2.5" r="2.5" transform="matrix(1 0 0 -1 125 325)" fill="white" fill-opacity="0.65"/>
<circle cx="2.5" cy="2.5" r="2.5" transform="matrix(1 0 0 -1 93 323)" fill="white" fill-opacity="0.65"/>
<circle cx="2.5" cy="2.5" r="2.5" transform="matrix(1 0 0 -1 106 318)" fill="white" fill-opacity="0.65"/>
<circle cx="2.5" cy="2.5" r="2.5" transform="matrix(1 0 0 -1 108 322)" fill="white" fill-opacity="0.65"/>
<circle cx="2.5" cy="2.5" r="2.5" transform="matrix(1 0 0 -1 114 321)" fill="white" fill-opacity="0.65"/>
<circle cx="2.5" cy="2.5" r="2.5" transform="matrix(1 0 0 -1 103 322)" fill="white" fill-opacity="0.65"/>
<circle cx="2.5" cy="2.5" r="2.5" transform="matrix(1 0 0 -1 136 326)" fill="white" fill-opacity="0.65"/>
<circle cx="2.5" cy="2.5" r="2.5" transform="matrix(1 0 0 -1 121 320)" fill="white" fill-opacity="0.65"/>
<circle cx="2.5" cy="2.5" r="2.5" transform="matrix(1 0 0 -1 121 323)" fill="white" fill-opacity="0.65"/>
<circle cx="270.5" cy="335.5" r="2.5" fill="white" fill-opacity="0.65"/>
<circle cx="118.5" cy="331.5" r="2.5" fill="white" fill-opacity="0.65"/>
<circle cx="213.5" cy="335.5" r="2.5" fill="white" fill-opacity="0.65"/>
<circle cx="2.5" cy="2.5" r="2.5" transform="matrix(1 0 0 -1 122 327)" fill="white" fill-opacity="0.65"/>
<circle cx="136.5" cy="337.5" r="2.5" fill="white" fill-opacity="0.65"/>
<circle cx="233.5" cy="331.5" r="2.5" fill="white" fill-opacity="0.65"/>
<path d="M179 331.5C179 332.881 177.881 334 176.5 334C175.119 334 174 332.881 174 331.5C174 330.119 175.119 329 176.5 329C177.881 329 179 330.119 179 331.5Z" fill="white" fill-opacity="0.65"/>
<circle cx="130.5" cy="332.5" r="2.5" fill="white" fill-opacity="0.65"/>
<circle cx="2.5" cy="2.5" r="2.5" transform="matrix(1 0 0 -1 85 331)" fill="white" fill-opacity="0.65"/>
<circle cx="251.5" cy="337.5" r="2.5" fill="white" fill-opacity="0.65"/>
<circle cx="259.5" cy="334.5" r="2.5" fill="white" fill-opacity="0.65"/>
<circle cx="293.5" cy="329.5" r="2.5" fill="white" fill-opacity="0.65"/>
<circle cx="311.5" cy="333.5" r="2.5" fill="white" fill-opacity="0.65"/>
<circle cx="323.5" cy="329.5" r="2.5" fill="white" fill-opacity="0.65"/>
<circle cx="299.5" cy="339.5" r="2.5" fill="white" fill-opacity="0.65"/>
<circle cx="302.5" cy="330.5" r="2.5" fill="white" fill-opacity="0.65"/>
<circle cx="314.5" cy="326.5" r="2.5" fill="white" fill-opacity="0.65"/>
<circle cx="124.5" cy="333.5" r="2.5" fill="white" fill-opacity="0.65"/>
<circle cx="194.5" cy="337.5" r="2.5" fill="white" fill-opacity="0.65"/>
<circle cx="2.5" cy="2.5" r="2.5" transform="matrix(1 0 0 -1 103 325)" fill="white" fill-opacity="0.65"/>
<circle cx="245.5" cy="332.5" r="2.5" fill="white" fill-opacity="0.65"/>
<circle cx="188.5" cy="332.5" r="2.5" fill="white" fill-opacity="0.65"/>
<circle cx="2.5" cy="2.5" r="2.5" transform="matrix(1 0 0 -1 97 330)" fill="white" fill-opacity="0.65"/>
<circle cx="239.5" cy="333.5" r="2.5" fill="white" fill-opacity="0.65"/>
<circle cx="182.5" cy="333.5" r="2.5" fill="white" fill-opacity="0.65"/>
<circle cx="2.5" cy="2.5" r="2.5" transform="matrix(1 0 0 -1 104 338)" fill="white" fill-opacity="0.65"/>
<circle cx="2.5" cy="2.5" r="2.5" transform="matrix(1 0 0 -1 117 356)" fill="white" fill-opacity="0.65"/>
<circle cx="2.5" cy="2.5" r="2.5" transform="matrix(1 0 0 -1 70 329)" fill="white" fill-opacity="0.65"/>
<circle cx="2.5" cy="2.5" r="2.5" transform="matrix(1 0 0 -1 77 336)" fill="white" fill-opacity="0.65"/>
<circle cx="2.5" cy="2.5" r="2.5" transform="matrix(1 0 0 -1 69 324)" fill="white" fill-opacity="0.65"/>
<circle cx="2.5" cy="2.5" r="2.5" transform="matrix(1 0 0 -1 60 331)" fill="white" fill-opacity="0.65"/>
<circle cx="288.5" cy="380.667" r="2.5" fill="white" fill-opacity="0.65"/>
<circle cx="288.5" cy="366.5" r="2.5" fill="white" fill-opacity="0.65"/>
<circle cx="291.5" cy="345.5" r="2.5" fill="white" fill-opacity="0.65"/>
<circle cx="270.5" cy="406.5" r="2.5" fill="white" fill-opacity="0.65"/>
<circle cx="244.5" cy="406.5" r="2.5" fill="white" fill-opacity="0.65"/>
<circle cx="244.5" cy="443.5" r="2.5" fill="white" fill-opacity="0.65"/>
<circle cx="249.5" cy="371.5" r="2.5" fill="white" fill-opacity="0.65"/>
<circle cx="249.5" cy="364.833" r="2.5" fill="white" fill-opacity="0.65"/>
<circle cx="238.5" cy="369.5" r="2.5" fill="white" fill-opacity="0.65"/>
<circle cx="249.5" cy="355.667" r="2.5" fill="white" fill-opacity="0.65"/>
<circle cx="249.5" cy="346.5" r="2.5" fill="white" fill-opacity="0.65"/>
<circle cx="1.5" cy="1.5" r="1.5" transform="matrix(1 0 0 -1 144 357)" fill="white" fill-opacity="0.65"/>
<circle cx="1.5" cy="1.5" r="1.5" transform="matrix(1 0 0 -1 167 334)" fill="white" fill-opacity="0.65"/>
<circle cx="1.5" cy="1.5" r="1.5" transform="matrix(1 0 0 -1 160 334)" fill="white" fill-opacity="0.65"/>
<circle cx="1.5" cy="1.5" r="1.5" transform="matrix(1 0 0 -1 153 326)" fill="white" fill-opacity="0.65"/>
<circle cx="1.5" cy="1.5" r="1.5" transform="matrix(1 0 0 -1 147 324)" fill="white" fill-opacity="0.65"/>
<circle cx="1.5" cy="1.5" r="1.5" transform="matrix(1 0 0 -1 140 323)" fill="white" fill-opacity="0.65"/>
<circle cx="1.5" cy="1.5" r="1.5" transform="matrix(1 0 0 -1 134 323)" fill="white" fill-opacity="0.65"/>
<circle cx="1.5" cy="1.5" r="1.5" transform="matrix(1 0 0 -1 170 340)" fill="white" fill-opacity="0.65"/>
<path d="M181 340.5C181 339.672 180.328 339 179.5 339C178.672 339 178 339.672 178 340.5C178 341.328 178.672 342 179.5 342C180.328 342 181 341.328 181 340.5Z" fill="white" fill-opacity="0.65"/>
<path d="M175 318C175 317.172 174.328 316.5 173.5 316.5C172.672 316.5 172 317.172 172 318C172 318.828 172.672 319.5 173.5 319.5C174.328 319.5 175 318.828 175 318Z" fill="white" fill-opacity="0.65"/>
<path d="M186 319.5C186 318.672 185.328 318 184.5 318C183.672 318 183 318.672 183 319.5C183 320.328 183.672 321 184.5 321C185.328 321 186 320.328 186 319.5Z" fill="white" fill-opacity="0.65"/>
<circle cx="1.5" cy="1.5" r="1.5" transform="matrix(1 0 0 -1 183 343)" fill="white" fill-opacity="0.65"/>
<circle cx="1.5" cy="1.5" r="1.5" transform="matrix(1 0 0 -1 169 328)" fill="white" fill-opacity="0.65"/>
<circle cx="1.5" cy="1.5" r="1.5" transform="matrix(1 0 0 -1 180 328)" fill="white" fill-opacity="0.65"/>
<circle cx="1.5" cy="1.5" r="1.5" transform="matrix(1 0 0 -1 198 333)" fill="white" fill-opacity="0.65"/>
<circle cx="1.5" cy="1.5" r="1.5" transform="matrix(1 0 0 -1 209 339)" fill="white" fill-opacity="0.65"/>
<circle cx="1.5" cy="1.5" r="1.5" transform="matrix(1 0 0 -1 206 336)" fill="white" fill-opacity="0.65"/>
<circle cx="1.5" cy="1.5" r="1.5" transform="matrix(1 0 0 -1 191 332)" fill="white" fill-opacity="0.65"/>
<circle cx="1.5" cy="1.5" r="1.5" transform="matrix(1 0 0 -1 184 330)" fill="white" fill-opacity="0.65"/>
<circle cx="1.5" cy="1.5" r="1.5" transform="matrix(1 0 0 -1 148 320)" fill="white" fill-opacity="0.65"/>
<circle cx="1.5" cy="1.5" r="1.5" transform="matrix(1 0 0 -1 155 320)" fill="white" fill-opacity="0.65"/>
<circle cx="1.5" cy="1.5" r="1.5" transform="matrix(1 0 0 -1 159 321)" fill="white" fill-opacity="0.65"/>
<circle cx="1.5" cy="1.5" r="1.5" transform="matrix(1 0 0 -1 167 318)" fill="white" fill-opacity="0.65"/>
<circle cx="1.5" cy="1.5" r="1.5" transform="matrix(1 0 0 -1 178 318)" fill="white" fill-opacity="0.65"/>
<circle cx="1.5" cy="1.5" r="1.5" transform="matrix(1 0 0 -1 148 320)" fill="white" fill-opacity="0.65"/>
<circle cx="1.5" cy="1.5" r="1.5" transform="matrix(1 0 0 -1 155 320)" fill="white" fill-opacity="0.65"/>
<circle cx="1.5" cy="1.5" r="1.5" transform="matrix(1 0 0 -1 159 321)" fill="white" fill-opacity="0.65"/>
<circle cx="1.5" cy="1.5" r="1.5" transform="matrix(1 0 0 -1 167 318)" fill="white" fill-opacity="0.65"/>
<circle cx="1.5" cy="1.5" r="1.5" transform="matrix(1 0 0 -1 178 318)" fill="white" fill-opacity="0.65"/>
<circle cx="1.5" cy="1.5" r="1.5" transform="matrix(1 0 0 -1 186 316)" fill="white" fill-opacity="0.65"/>
<circle cx="1.5" cy="1.5" r="1.5" transform="matrix(1 0 0 -1 225 313)" fill="white" fill-opacity="0.65"/>
<circle cx="1.5" cy="1.5" r="1.5" transform="matrix(1 0 0 -1 257 321)" fill="white" fill-opacity="0.65"/>
<circle cx="1.5" cy="1.5" r="1.5" transform="matrix(1 0 0 -1 243 315)" fill="white" fill-opacity="0.65"/>
<circle cx="1.5" cy="1.5" r="1.5" transform="matrix(1 0 0 -1 193 316)" fill="white" fill-opacity="0.65"/>
<circle cx="1.5" cy="1.5" r="1.5" transform="matrix(1 0 0 -1 232 313)" fill="white" fill-opacity="0.65"/>
<circle cx="1.5" cy="1.5" r="1.5" transform="matrix(1 0 0 -1 264 321)" fill="white" fill-opacity="0.65"/>
<circle cx="1.5" cy="1.5" r="1.5" transform="matrix(1 0 0 -1 250 315)" fill="white" fill-opacity="0.65"/>
<circle cx="2" cy="2" r="2" transform="matrix(1 0 0 -1 197 317)" fill="white" fill-opacity="0.65"/>
<circle cx="2" cy="2" r="2" transform="matrix(1 0 0 -1 219 312)" fill="white" fill-opacity="0.65"/>
<circle cx="2" cy="2" r="2" transform="matrix(1 0 0 -1 238 312)" fill="white" fill-opacity="0.65"/>
<circle cx="2" cy="2" r="2" transform="matrix(1 0 0 -1 248 310)" fill="white" fill-opacity="0.65"/>
<circle cx="2" cy="2" r="2" transform="matrix(1 0 0 -1 211 312)" fill="white" fill-opacity="0.65"/>
<circle cx="2" cy="2" r="2" transform="matrix(1 0 0 -1 206 310)" fill="white" fill-opacity="0.65"/>
<circle cx="2" cy="2" r="2" transform="matrix(1 0 0 -1 226 309)" fill="white" fill-opacity="0.65"/>
<circle cx="2" cy="2" r="2" transform="matrix(1 0 0 -1 233 309)" fill="white" fill-opacity="0.65"/>
<circle cx="2" cy="2" r="2" transform="matrix(1 0 0 -1 188 319)" fill="white" fill-opacity="0.65"/>
<circle cx="2" cy="2" r="2" transform="matrix(1 0 0 -1 283 314)" fill="white" fill-opacity="0.65"/>
<circle cx="2" cy="2" r="2" transform="matrix(1 0 0 -1 297 319)" fill="white" fill-opacity="0.65"/>
<circle cx="2" cy="2" r="2" transform="matrix(1 0 0 -1 304 319)" fill="white" fill-opacity="0.65"/>
<circle cx="2" cy="2" r="2" transform="matrix(1 0 0 -1 277 311)" fill="white" fill-opacity="0.65"/>
<circle cx="2" cy="2" r="2" transform="matrix(1 0 0 -1 269 310)" fill="white" fill-opacity="0.65"/>
<circle cx="2" cy="2" r="2" transform="matrix(1 0 0 -1 266 311)" fill="white" fill-opacity="0.65"/>
<circle cx="2" cy="2" r="2" transform="matrix(1 0 0 -1 263 310)" fill="white" fill-opacity="0.65"/>
<circle cx="2" cy="2" r="2" transform="matrix(1 0 0 -1 258 314)" fill="white" fill-opacity="0.65"/>
<circle cx="2" cy="2" r="2" transform="matrix(1 0 0 -1 216 325)" fill="white" fill-opacity="0.65"/>
<circle cx="1.5" cy="1.5" r="1.5" transform="matrix(1 0 0 -1 236 314)" fill="white" fill-opacity="0.65"/>
<circle cx="1.5" cy="1.5" r="1.5" transform="matrix(1 0 0 -1 268 322)" fill="white" fill-opacity="0.65"/>
<circle cx="1.5" cy="1.5" r="1.5" transform="matrix(1 0 0 -1 254 316)" fill="white" fill-opacity="0.65"/>
<circle cx="1.5" cy="1.5" r="1.5" transform="matrix(1 0 0 -1 205 314)" fill="white" fill-opacity="0.65"/>
<circle cx="1.5" cy="1.5" r="1.5" transform="matrix(1 0 0 -1 244 311)" fill="white" fill-opacity="0.65"/>
<circle cx="1.5" cy="1.5" r="1.5" transform="matrix(1 0 0 -1 276 319)" fill="white" fill-opacity="0.65"/>
<circle cx="1.5" cy="1.5" r="1.5" transform="matrix(1 0 0 -1 262 313)" fill="white" fill-opacity="0.65"/>
<circle cx="1.5" cy="1.5" r="1.5" transform="matrix(1 0 0 -1 216 314)" fill="white" fill-opacity="0.65"/>
<circle cx="1.5" cy="1.5" r="1.5" transform="matrix(1 0 0 -1 255 311)" fill="white" fill-opacity="0.65"/>
<circle cx="1.5" cy="1.5" r="1.5" transform="matrix(1 0 0 -1 287 319)" fill="white" fill-opacity="0.65"/>
<circle cx="1.5" cy="1.5" r="1.5" transform="matrix(1 0 0 -1 273 313)" fill="white" fill-opacity="0.65"/>
<circle cx="238.5" cy="474.333" r="2.5" fill="white" fill-opacity="0.65"/>
<circle cx="238.5" cy="462.667" r="2.5" fill="white" fill-opacity="0.65"/>
<circle cx="238.5" cy="453.5" r="2.5" fill="white" fill-opacity="0.65"/>
<circle cx="238.5" cy="446.833" r="2.5" fill="white" fill-opacity="0.65"/>
<circle cx="238.5" cy="437.667" r="2.5" fill="white" fill-opacity="0.65"/>
<circle cx="238.5" cy="428.5" r="2.5" fill="white" fill-opacity="0.65"/>
<circle cx="78.5" cy="388.333" r="2.5" fill="white" fill-opacity="0.65"/>
<circle cx="78.5" cy="376.667" r="2.5" fill="white" fill-opacity="0.65"/>
<circle cx="78.5" cy="367.5" r="2.5" fill="white" fill-opacity="0.65"/>
<circle cx="78.5" cy="360.833" r="2.5" fill="white" fill-opacity="0.65"/>
<circle cx="78.5" cy="351.667" r="2.5" fill="white" fill-opacity="0.65"/>
<circle cx="91.5" cy="319.5" r="2.5" fill="white" fill-opacity="0.65"/>
<circle cx="99.5" cy="319.5" r="2.5" fill="white" fill-opacity="0.65"/>
<circle cx="78.5" cy="342.5" r="2.5" fill="white" fill-opacity="0.65"/>
<circle cx="204" cy="477" r="3" fill="white" fill-opacity="0.65"/>
<circle cx="204" cy="466" r="3" fill="white" fill-opacity="0.65"/>
<circle cx="204" cy="452" r="3" fill="white" fill-opacity="0.65"/>
<circle cx="204" cy="441" r="3" fill="white" fill-opacity="0.65"/>
<circle cx="120" cy="407" r="3" fill="white" fill-opacity="0.65"/>
<circle cx="160" cy="433" r="3" fill="white" fill-opacity="0.65"/>
<circle cx="204" cy="422" r="3" fill="white" fill-opacity="0.65"/>
<circle cx="204" cy="411" r="3" fill="white" fill-opacity="0.65"/>
<path d="M164 402C164 402.828 163.328 403.5 162.5 403.5C161.672 403.5 161 402.828 161 402C161 401.172 161.672 400.5 162.5 400.5C163.328 400.5 164 401.172 164 402Z" fill="white" fill-opacity="0.65"/>
<path d="M164 396.5C164 397.328 163.328 398 162.5 398C161.672 398 161 397.328 161 396.5C161 395.672 161.672 395 162.5 395C163.328 395 164 395.672 164 396.5Z" fill="white" fill-opacity="0.65"/>
<path d="M164 389.5C164 390.328 163.328 391 162.5 391C161.672 391 161 390.328 161 389.5C161 388.672 161.672 388 162.5 388C163.328 388 164 388.672 164 389.5Z" fill="white" fill-opacity="0.65"/>
<path d="M164 383.5C164 384.328 163.328 385 162.5 385C161.672 385 161 384.328 161 383.5C161 382.672 161.672 382 162.5 382C163.328 382 164 382.672 164 383.5Z" fill="white" fill-opacity="0.65"/>
<path d="M164 380C164 380.828 163.328 381.5 162.5 381.5C161.672 381.5 161 380.828 161 380C161 379.172 161.672 378.5 162.5 378.5C163.328 378.5 164 379.172 164 380Z" fill="white" fill-opacity="0.65"/>
<path d="M164 374.5C164 375.328 163.328 376 162.5 376C161.672 376 161 375.328 161 374.5C161 373.672 161.672 373 162.5 373C163.328 373 164 373.672 164 374.5Z" fill="white" fill-opacity="0.65"/>
<path d="M164 369C164 369.828 163.328 370.5 162.5 370.5C161.672 370.5 161 369.828 161 369C161 368.172 161.672 367.5 162.5 367.5C163.328 367.5 164 368.172 164 369Z" fill="white" fill-opacity="0.65"/>
<path d="M164 386.5C164 387.328 163.328 388 162.5 388C161.672 388 161 387.328 161 386.5C161 385.672 161.672 385 162.5 385C163.328 385 164 385.672 164 386.5Z" fill="white" fill-opacity="0.65"/>
<path d="M164 374C164 374.828 163.328 375.5 162.5 375.5C161.672 375.5 161 374.828 161 374C161 373.172 161.672 372.5 162.5 372.5C163.328 372.5 164 373.172 164 374Z" fill="white" fill-opacity="0.65"/>
<path d="M164 368.5C164 369.328 163.328 370 162.5 370C161.672 370 161 369.328 161 368.5C161 367.672 161.672 367 162.5 367C163.328 367 164 367.672 164 368.5Z" fill="white" fill-opacity="0.65"/>
<path d="M164 364.5C164 365.328 163.328 366 162.5 366C161.672 366 161 365.328 161 364.5C161 363.672 161.672 363 162.5 363C163.328 363 164 363.672 164 364.5Z" fill="white" fill-opacity="0.65"/>
<path d="M164 359C164 359.828 163.328 360.5 162.5 360.5C161.672 360.5 161 359.828 161 359C161 358.172 161.672 357.5 162.5 357.5C163.328 357.5 164 358.172 164 359Z" fill="white" fill-opacity="0.65"/>
<path d="M164 353.5C164 354.328 163.328 355 162.5 355C161.672 355 161 354.328 161 353.5C161 352.672 161.672 352 162.5 352C163.328 352 164 352.672 164 353.5Z" fill="white" fill-opacity="0.65"/>
<path d="M185.5 386.5C185.5 387.328 184.828 388 184 388C183.172 388 182.5 387.328 182.5 386.5C182.5 385.672 183.172 385 184 385C184.828 385 185.5 385.672 185.5 386.5Z" fill="white" fill-opacity="0.65"/>
<path d="M199 400C199 400.828 198.328 401.5 197.5 401.5C196.672 401.5 196 400.828 196 400C196 399.172 196.672 398.5 197.5 398.5C198.328 398.5 199 399.172 199 400Z" fill="white" fill-opacity="0.65"/>
<path d="M213 380C213 380.828 212.328 381.5 211.5 381.5C210.672 381.5 210 380.828 210 380C210 379.172 210.672 378.5 211.5 378.5C212.328 378.5 213 379.172 213 380Z" fill="white" fill-opacity="0.65"/>
<path d="M226.5 393.5C226.5 394.328 225.828 395 225 395C224.172 395 223.5 394.328 223.5 393.5C223.5 392.672 224.172 392 225 392C225.828 392 226.5 392.672 226.5 393.5Z" fill="white" fill-opacity="0.65"/>
<circle cx="251.85" cy="333.792" r="3.5" fill="white" fill-opacity="0.65"/>
<circle cx="269.789" cy="333.87" r="3.5" transform="rotate(0.0185864 269.789 333.87)" fill="white" fill-opacity="0.65"/>
<circle cx="287.663" cy="333.51" r="3.5" transform="rotate(-2.81669 287.663 333.51)" fill="white" fill-opacity="0.65"/>
<circle cx="305.481" cy="331.827" r="3.5" transform="rotate(-8.49165 305.481 331.827)" fill="white" fill-opacity="0.65"/>
<circle cx="323.389" cy="327.95" r="3.5" transform="rotate(-24.8692 323.389 327.95)" fill="white" fill-opacity="0.65"/>
<circle cx="339.017" cy="319.129" r="3.5" transform="rotate(-24.2088 339.017 319.129)" fill="white" fill-opacity="0.65"/>
<circle cx="355.593" cy="312.785" r="3.5" transform="rotate(-9.52946 355.593 312.785)" fill="white" fill-opacity="0.65"/>
<circle cx="142.505" cy="319.213" r="3.5" fill="white" fill-opacity="0.65"/>
<circle cx="168.996" cy="317.177" r="3.5" transform="rotate(-11.0217 168.996 317.177)" fill="white" fill-opacity="0.65"/>
<circle cx="194.989" cy="310.37" r="3.5" transform="rotate(-11.4176 194.989 310.37)" fill="white" fill-opacity="0.65"/>
<circle cx="221.422" cy="305.935" r="3.5" transform="rotate(-6.02498 221.422 305.935)" fill="white" fill-opacity="0.65"/>
<circle cx="248.141" cy="306.49" r="3.5" transform="rotate(13.6836 248.141 306.49)" fill="white" fill-opacity="0.65"/>
<circle cx="274.227" cy="311.806" r="3.5" transform="rotate(8.17082 274.227 311.806)" fill="white" fill-opacity="0.65"/>
<circle cx="301.062" cy="313.813" r="3.5" transform="rotate(3.12765 301.062 313.813)" fill="white" fill-opacity="0.65"/>
<circle cx="326.866" cy="317.503" r="3.5" transform="rotate(-12.3333 326.866 317.503)" fill="white" fill-opacity="0.65"/>
<circle cx="44.3086" cy="314.925" r="3.5" fill="white" fill-opacity="0.65"/>
<circle cx="69.4803" cy="315.114" r="3.5" transform="rotate(0.852206 69.4803 315.114)" fill="white" fill-opacity="0.65"/>
<circle cx="94.8768" cy="315.669" r="3.5" transform="rotate(1.64956 94.8768 315.669)" fill="white" fill-opacity="0.65"/>
<circle cx="120.313" cy="316.768" r="3.5" transform="rotate(9.30736 120.313 316.768)" fill="white" fill-opacity="0.65"/>
<circle cx="145.574" cy="319.593" r="3.5" transform="rotate(11.9596 145.574 319.593)" fill="white" fill-opacity="0.65"/>
<circle cx="170.124" cy="326.083" r="3.5" transform="rotate(12.6047 170.124 326.083)" fill="white" fill-opacity="0.65"/>
<circle cx="195.321" cy="328.629" r="3.5" transform="rotate(0.943075 195.321 328.629)" fill="white" fill-opacity="0.65"/>
<circle cx="220.075" cy="330.801" r="3.5" transform="rotate(-13.833 220.075 330.801)" fill="white" fill-opacity="0.65"/>
<path d="M46.3086 314.925C46.3086 316.029 45.4132 316.925 44.3086 316.925C43.204 316.925 42.3086 316.029 42.3086 314.925C42.3086 313.82 43.204 312.925 44.3086 312.925C45.4132 312.925 46.3086 313.82 46.3086 314.925Z" fill="white" fill-opacity="0.65"/>
<path d="M57.2465 314.974C57.2392 316.079 56.3378 316.968 55.2333 316.961C54.1287 316.954 53.2393 316.052 53.2466 314.948C53.2538 313.843 54.1552 312.954 55.2597 312.961C56.3643 312.968 57.2538 313.87 57.2465 314.974Z" fill="white" fill-opacity="0.65"/>
<path d="M68.4329 315.097C68.4185 316.202 67.5114 317.085 66.4069 317.071C65.3024 317.056 64.4188 316.149 64.4333 315.045C64.4477 313.94 65.3548 313.057 66.4593 313.071C67.5638 313.086 68.4474 313.993 68.4329 315.097Z" fill="white" fill-opacity="0.65"/>
<path d="M79.3537 315.287C79.3324 316.391 78.4198 317.269 77.3154 317.247C76.2111 317.226 75.3331 316.314 75.3544 315.209C75.3758 314.105 76.2883 313.227 77.3927 313.248C78.4971 313.27 79.375 314.182 79.3537 315.287Z" fill="white" fill-opacity="0.65"/>
<path d="M90.5285 315.548C90.5004 316.653 89.5825 317.525 88.4783 317.497C87.3741 317.469 86.5017 316.551 86.5298 315.447C86.5578 314.343 87.4757 313.47 88.5799 313.498C89.6841 313.526 90.5565 314.444 90.5285 315.548Z" fill="white" fill-opacity="0.65"/>
<path d="M101.764 315.845C101.745 316.949 100.834 317.828 99.7291 317.809C98.6247 317.789 97.7454 316.878 97.7651 315.773C97.7848 314.669 98.6961 313.79 99.8005 313.809C100.905 313.829 101.784 314.74 101.764 315.845Z" fill="white" fill-opacity="0.65"/>
<path d="M112.892 315.878C112.867 316.982 111.951 317.857 110.846 317.831C109.742 317.806 108.868 316.89 108.893 315.786C108.918 314.681 109.834 313.807 110.938 313.832C112.043 313.858 112.917 314.773 112.892 315.878Z" fill="white" fill-opacity="0.65"/>
<path d="M123.943 317.315C123.783 318.408 122.767 319.164 121.674 319.003C120.581 318.843 119.825 317.827 119.986 316.734C120.146 315.642 121.162 314.885 122.255 315.046C123.348 315.206 124.104 316.222 123.943 317.315Z" fill="white" fill-opacity="0.65"/>
<path d="M134.938 318.369C134.847 319.47 133.88 320.288 132.779 320.196C131.679 320.105 130.86 319.138 130.952 318.038C131.043 316.937 132.01 316.119 133.111 316.21C134.212 316.302 135.03 317.268 134.938 318.369Z" fill="white" fill-opacity="0.65"/>
<path d="M145.968 319.635C145.777 320.723 144.74 321.449 143.652 321.258C142.564 321.066 141.837 320.029 142.029 318.941C142.22 317.853 143.257 317.127 144.345 317.318C145.433 317.51 146.16 318.547 145.968 319.635Z" fill="white" fill-opacity="0.65"/>
<path d="M156.632 322.666C156.316 323.724 155.202 324.327 154.144 324.011C153.085 323.696 152.483 322.582 152.798 321.523C153.114 320.465 154.228 319.862 155.286 320.178C156.345 320.493 156.947 321.607 156.632 322.666Z" fill="white" fill-opacity="0.65"/>
<path d="M167.453 325.469C167.185 326.541 166.099 327.192 165.027 326.924C163.956 326.656 163.305 325.57 163.573 324.498C163.841 323.427 164.927 322.776 165.998 323.044C167.07 323.312 167.721 324.398 167.453 325.469Z" fill="white" fill-opacity="0.65"/>
<path d="M178.318 327.622C178.14 328.712 177.112 329.452 176.022 329.274C174.932 329.096 174.192 328.068 174.37 326.978C174.548 325.888 175.576 325.148 176.666 325.326C177.756 325.504 178.496 326.532 178.318 327.622Z" fill="white" fill-opacity="0.65"/>
<path d="M189.441 328.438C189.387 329.542 188.449 330.392 187.346 330.338C186.242 330.283 185.392 329.345 185.446 328.242C185.5 327.139 186.439 326.288 187.542 326.342C188.645 326.397 189.496 327.335 189.441 328.438Z" fill="white" fill-opacity="0.65"/>
<path d="M200.528 328.98C200.39 330.075 199.389 330.851 198.293 330.713C197.198 330.574 196.422 329.574 196.56 328.478C196.699 327.382 197.699 326.606 198.795 326.744C199.891 326.883 200.667 327.884 200.528 328.98Z" fill="white" fill-opacity="0.65"/>
<path d="M211.446 330.634C211.22 331.716 210.161 332.409 209.079 332.184C207.998 331.958 207.304 330.898 207.53 329.817C207.756 328.736 208.815 328.042 209.896 328.268C210.978 328.493 211.671 329.553 211.446 330.634Z" fill="white" fill-opacity="0.65"/>
<path d="M222.017 330.323C222.281 331.396 221.626 332.479 220.553 332.743C219.481 333.008 218.397 332.352 218.133 331.28C217.869 330.207 218.524 329.124 219.597 328.859C220.669 328.595 221.753 329.251 222.017 330.323Z" fill="white" fill-opacity="0.65"/>
<path fill-rule="evenodd" clip-rule="evenodd" d="M307.17 435.827C282.75 463.308 247.495 485.616 198.076 500.682V977.041H365.149C368.769 977.041 371.703 974.106 371.703 970.487C371.703 962.214 365.536 955.239 357.326 954.226L279.502 944.621C244.424 940.292 218.076 910.493 218.076 875.148V608.642C218.076 565.47 246.961 528.959 283.808 506.463C304.497 493.832 322.212 479.118 337.071 462.396C368.49 427.036 385.979 384.002 392.78 335.949C406.234 240.892 378.14 124.126 331.455 0L294.016 0C340.273 122.988 365.141 245.803 353.175 330.343C347.267 372.088 332.45 407.376 307.17 435.827Z" fill="#E6EDEF"/>
<path d="M116.65 944.621L38.8269 954.226C30.6163 955.239 24.4491 962.214 24.4491 970.487C24.4491 974.106 27.3834 977.041 31.0029 977.041H198.076V500.682C148.658 485.616 113.402 463.308 88.9828 435.827C63.7021 407.376 48.8858 372.088 42.9774 330.343C31.0119 245.803 55.8798 122.988 102.137 0L64.6971 0C18.012 124.126 -10.0818 240.892 3.37211 335.949C10.1734 384.002 27.6621 427.036 59.0818 462.396C73.9401 479.118 91.6557 493.832 112.344 506.463C149.192 528.959 178.076 565.47 178.076 608.642V875.148C178.076 910.493 151.728 940.292 116.65 944.621Z" fill="white"/>
<path d="M198.076 500.682C247.495 485.616 282.75 463.308 307.17 435.827C332.45 407.376 347.267 372.088 353.175 330.343C365.141 245.803 340.273 122.988 294.016 0H102.137C55.8798 122.988 31.0119 245.803 42.9774 330.343C48.8858 372.088 63.7021 407.376 88.9828 435.827C113.402 463.308 148.658 485.616 198.076 500.682Z" fill="#F2F4F4" fill-opacity="0.15"/>
</svg>
