<svg width="985" height="984" viewBox="0 0 985 984" fill="none" xmlns="http://www.w3.org/2000/svg">
<circle cx="492" cy="492" r="492" fill="white"/>
<circle cx="492" cy="492" r="379" fill="white" stroke="#E9E9E9" stroke-width="20"/>
<path d="M396.345 742.9C405.186 750.845 410.271 784.346 411.709 800.103L469.277 785.596C486.853 765.417 480.917 616.879 472.109 600.851C454.136 568.14 412.284 578.496 397.132 576.3C381.98 574.105 391.837 516.154 378.223 491.929C360.853 461.021 295.652 466.655 278.171 450.946C260.689 435.237 270.199 384.227 249.839 367.07C212.428 335.544 170.782 351.202 122.497 376.333C83.869 396.438 90.5293 430.441 116.056 453.342C150.004 483.796 191.769 484.948 207.458 504.072C227.07 527.976 213.737 577.092 228.771 599.738C243.805 622.384 288.815 614.866 299.996 632.907C311.177 650.949 308.071 700.12 318.051 712.514C328.03 724.908 385.293 732.968 396.345 742.9Z" fill="#5D865D"/>
<path d="M472.576 516.756C468.047 527.512 475.737 560.354 480.148 575.431L427.089 584.428C405.286 572.663 357.372 433.499 358.996 415.31C362.311 378.189 400.816 371.472 412.642 363.563C424.467 355.654 395.646 306.089 398.353 278.48C401.807 243.254 458.059 223.116 467.014 201.851C475.969 180.586 449.906 137.281 460.74 113.564C480.648 69.9841 520.869 68.2321 569.985 72.6296C609.28 76.1481 615.838 110.065 602.746 141.081C585.336 182.328 550.998 199.615 544.749 223.329C536.938 252.973 565.508 293.048 561.058 319.754C556.607 346.459 516.484 357.017 513.601 377.984C510.718 398.951 530.798 443.049 526.905 458.343C523.012 473.64 478.238 503.313 472.576 516.756Z" fill="#699569"/>
<path d="M400.078 546.371C417.085 519.088 462.795 471.766 465.818 451.931C469.597 427.139 448.886 384.334 451.918 358.956C456.136 323.646 509.291 290.534 509.817 266.808C510.342 243.083 484.556 180.608 510.95 147.011C537.066 113.767 531.417 97.9017 517.594 78.6067" stroke="#638963" stroke-width="2" stroke-linecap="round"/>
<path d="M471.048 433.752C475.282 422.876 466.697 390.257 461.876 375.305L514.669 364.862C536.785 376.026 588.485 513.829 587.358 532.056C585.059 569.254 546.752 577.02 535.147 585.25C523.542 593.479 553.707 642.238 551.755 669.911C549.265 705.217 493.585 726.885 485.214 748.387C476.844 769.889 504.081 812.465 493.898 836.47C475.189 880.578 435.031 883.428 385.814 880.374C346.437 877.931 338.955 844.206 351.193 812.843C367.47 771.136 401.322 752.918 406.921 729.041C413.919 699.196 384.265 659.916 387.984 633.099C391.702 606.281 431.522 594.631 433.831 573.593C436.14 552.556 414.863 509.023 418.336 493.628C421.81 478.23 465.756 447.345 471.048 433.752Z" fill="#699569"/>
<path d="M542.71 402.167C526.455 429.904 482.055 478.457 479.575 498.368C476.476 523.254 498.349 565.477 496.011 590.929C492.76 626.34 440.529 660.893 440.652 684.624C440.776 708.355 468.259 770.102 442.794 804.407C417.595 838.353 423.676 854.058 438.021 872.968" stroke="#638963" stroke-width="2" stroke-linecap="round"/>
<path d="M372.573 418.434C378.522 426.18 375.472 452.579 373.203 464.813L426.754 465C446.624 453.111 474.661 339.288 470.55 325.418C462.161 297.112 423.273 296.832 410.524 292.22C397.774 287.609 419.35 245.568 412.871 224.546C404.607 197.725 346.372 189.322 334.61 174.008C322.847 158.693 342.567 121.85 328.613 104.878C302.974 73.6919 263.081 77.4721 215.267 87.1472C177.015 94.8877 175.23 121.975 192.414 144.308C215.267 174.008 251.505 183.002 260.937 200.557C272.727 222.502 250.091 257.166 258.162 277.266C266.234 297.367 307.247 300.413 312.982 316.272C318.717 332.131 305.005 368.825 310.953 380.164C316.902 391.507 365.137 408.754 372.573 418.434Z" fill="#73A273"/>
<path d="M414.273 450.528C411.132 425.502 417.185 374.261 408.277 360.582C397.141 343.487 358.593 327.133 346.6 310.037C329.915 286.251 349.17 240.164 336.321 225.298C323.472 210.431 270.361 184.414 270.362 150.964C270.362 117.866 257.512 110.825 236.954 105.621" stroke="#638963" stroke-width="2" stroke-linecap="round"/>
<path style="mix-blend-mode:luminosity" d="M408.636 362.813C417.545 376.492 411.492 427.73 414.633 452.755L367.519 457.217C382.367 444.579 404.525 416.63 374.372 405.927C344.219 395.221 336.681 361.821 336.681 346.46L329.828 301.117C311.268 295.666 275.176 282.088 279.288 271.384C283.399 260.68 285.569 218.855 286.14 199.281C265.011 190.361 222.066 167.02 219.324 145.018C216.583 123.015 230.175 111.072 237.313 107.851C257.872 113.055 270.722 120.096 270.721 153.194C270.721 186.644 323.831 212.661 336.681 227.527C349.53 242.394 330.275 288.481 346.96 312.267C358.953 329.363 397.501 345.717 408.636 362.813Z" fill="url(#paint0_linear_6_878)"/>
<path d="M341.579 296.832C330.067 270.839 358.515 228.485 348.938 211.864" stroke="#638963" stroke-width="2" stroke-linecap="round"/>
<path d="M294.347 191.104C268.649 173.264 265.222 142.788 239.524 133.868" stroke="#638963" stroke-width="2" stroke-linecap="round"/>
<path d="M451.843 604.226C443.866 614.424 449.191 648.15 452.85 663.741L378.218 666.348C350.039 651.977 306.33 507.223 311.495 489.251C322.037 452.574 376.229 450.495 393.811 444.017C411.394 437.539 379.611 384.57 387.786 357.32C398.215 322.553 479.042 309.2 494.814 289.037C510.585 268.875 481.601 222.49 500.359 200.104C534.827 158.97 590.585 162.056 657.623 172.352C711.254 180.589 714.844 215.253 691.801 244.658C661.157 283.762 611.013 296.9 598.58 319.834C583.039 348.503 616 391.963 605.568 418.102C595.134 444.24 538.094 449.96 530.746 470.555C523.397 491.15 544.002 537.609 536.172 552.416C528.343 567.228 461.813 591.481 451.843 604.226Z" fill="#73A273"/>
<path d="M395.025 647.233C398.385 614.996 387.863 549.54 399.724 531.601C414.55 509.182 467.614 486.502 483.634 464.043C505.923 432.797 477.21 374.536 494.515 354.899C511.819 335.263 584.788 299.545 583.426 256.641C582.079 214.188 599.703 204.588 628.147 197.006" stroke="#638963" stroke-width="2" stroke-linecap="round"/>
<path style="mix-blend-mode:luminosity" d="M399.313 534.479C387.452 552.418 397.974 617.869 394.615 650.106L460.464 653.747C439.255 638.193 407.234 603.324 448.826 588.264C490.418 573.198 499.567 530.026 498.942 510.323L506.649 451.861C532.297 444.049 582.05 425.038 575.884 411.49C569.717 397.943 564.991 344.393 563.399 319.311C592.487 306.936 651.396 275.1 654.322 246.758C657.247 218.415 637.817 203.698 627.736 199.882C599.292 207.465 581.669 217.064 583.016 259.517C584.377 302.421 511.409 338.139 494.104 357.776C476.799 377.412 505.512 435.673 483.223 466.92C467.203 489.379 414.139 512.058 399.313 534.479Z" fill="url(#paint1_linear_6_878)"/>
<path d="M490.095 446.885C505.084 413.036 463.71 359.97 476.382 338.227" stroke="#638963" stroke-width="2" stroke-linecap="round"/>
<path d="M551.628 309.186C586.721 285.168 590.258 245.926 625.714 233.349" stroke="#638963" stroke-width="2" stroke-linecap="round"/>
<path d="M477.185 592.301C468.135 603.105 429.989 607.068 412.045 607.701L428.536 683.201C451.503 707.474 620.629 711.359 638.883 701.228C676.135 680.552 664.363 625.68 666.871 606.275C669.378 586.871 735.355 604.113 762.944 588.409C798.144 568.373 791.761 483.703 809.656 462.34C827.55 440.978 885.624 457.231 905.169 432.263C941.082 386.385 923.274 331.366 894.684 267.032C871.811 215.566 833.091 221.526 807.005 252.723C772.314 294.21 770.982 348.076 749.201 366.857C721.974 390.334 666.057 369.29 640.265 386.95C614.474 404.611 623.014 463.342 602.466 476.384C581.919 489.426 525.934 481.59 511.82 493.517C497.701 505.446 488.497 578.796 477.185 592.301Z" fill="#73A273"/>
<path d="M445.02 661.09C479.293 648.834 553.376 641.33 569.859 624.5C590.458 603.462 601.436 544.039 621.769 521.795C650.059 490.846 721.01 503.553 737.934 480.799C754.858 458.046 774.892 375.083 822.016 364.618C868.646 354.262 874.545 333.956 875.443 303.365" stroke="#638963" stroke-width="2" stroke-linecap="round"/>
<path style="mix-blend-mode:luminosity" d="M566.828 625.704C550.345 642.535 476.267 650.038 441.994 662.293L420.967 597.315C443.417 614.279 489.725 636.75 495.368 590.922C501.017 545.093 545.712 524.023 567.352 519.216L629.087 495.375C630.96 467.521 638.796 412.427 655.162 414.87C671.528 417.314 731.13 407.284 758.885 401.964C764.84 369.406 784.286 301.602 814.425 290.856C844.564 280.109 865.642 295.521 872.413 304.569C871.516 335.161 865.617 355.466 818.987 365.822C771.863 376.287 751.828 459.25 734.905 482.004C717.981 504.757 647.03 492.05 618.74 522.999C598.407 545.244 587.429 604.667 566.828 625.704Z" fill="url(#paint2_linear_6_878)"/>
<path d="M638.801 510.589C671.818 486.238 740.387 513.063 760.807 494.371" stroke="#638963" stroke-width="2" stroke-linecap="round"/>
<path d="M772.972 410.968C790.064 369.182 831.928 354.819 836.454 315.824" stroke="#638963" stroke-width="2" stroke-linecap="round"/>
<path fill-rule="evenodd" clip-rule="evenodd" d="M512 471.5C512 484.518 517.59 496.23 526.5 504.368C526.5 504.368 562.836 501.869 576 486C588.122 471.388 586.354 438.5 586.354 438.5C578.459 431.353 567.988 427 556.5 427C531.923 427 512 446.923 512 471.5Z" fill="#AB7373"/>
<path d="M556.5 516C581.077 516 601 496.077 601 471.5C601 458.411 595.349 446.643 586.354 438.5C586.354 438.5 588.122 471.388 576 486C562.836 501.869 526.5 504.368 526.5 504.368C534.412 511.593 544.941 516 556.5 516Z" fill="#946363"/>
<path fill-rule="evenodd" clip-rule="evenodd" d="M256 429.5C256 452.942 268.906 473.37 288 484.066C288 484.066 327.142 467.021 341 445.5C355.574 422.867 353.5 377.712 353.5 377.712C343.514 370.95 331.468 367 318.5 367C283.982 367 256 394.982 256 429.5Z" fill="#AB7373"/>
<path d="M318.5 492C353.018 492 381 464.018 381 429.5C381 407.95 370.094 388.948 353.5 377.712C353.5 377.712 355.574 422.867 341 445.5C327.142 467.021 288 484.066 288 484.066C297.021 489.119 307.424 492 318.5 492Z" fill="#946363"/>
<path fill-rule="evenodd" clip-rule="evenodd" d="M426.567 572.411C424.222 569.045 421.567 565.786 418.608 562.682C394.026 536.9 357.735 531.602 337.549 550.848C322.174 565.508 320.578 590.18 331.554 612.5C331.554 612.5 388.721 649.137 412.5 627.5C428.923 612.556 426.567 572.411 426.567 572.411Z" fill="#AB7373"/>
<path d="M345.509 632.378C370.09 658.16 406.382 663.458 426.567 644.212C444.323 627.283 443.703 597.003 426.567 572.411C426.567 572.411 428.923 612.556 412.5 627.5C388.721 649.137 331.554 612.5 331.554 612.5C334.987 619.482 339.651 626.235 345.509 632.378Z" fill="#946363"/>
<defs>
<linearGradient id="paint0_linear_6_878" x1="400.567" y1="288.481" x2="322.262" y2="336.362" gradientUnits="userSpaceOnUse">
<stop stop-color="#679267"/>
<stop offset="1" stop-color="#73A173" stop-opacity="0"/>
</linearGradient>
<linearGradient id="paint1_linear_6_878" x1="407.537" y1="438.78" x2="513.752" y2="504.603" gradientUnits="userSpaceOnUse">
<stop stop-color="#679267"/>
<stop offset="1" stop-color="#73A173" stop-opacity="0"/>
</linearGradient>
<linearGradient id="paint2_linear_6_878" x1="669.023" y1="591.078" x2="577.067" y2="495.744" gradientUnits="userSpaceOnUse">
<stop stop-color="#679267"/>
<stop offset="1" stop-color="#73A173" stop-opacity="0"/>
</linearGradient>
</defs>
</svg>
