<svg width="984" height="984" viewBox="0 0 984 984" fill="none" xmlns="http://www.w3.org/2000/svg">
<circle cx="492" cy="492" r="492" fill="white"/>
<circle cx="492" cy="492" r="379" fill="white" stroke="#E9E9E9" stroke-width="20"/>
<path d="M113.073 464.28C109.299 380.349 253.783 409.683 276.905 329.051C293.025 272.837 246.588 237.432 258.807 180.202C295.106 10.196 600.476 55.5881 694.583 200.632C726.099 249.207 712.133 291.457 739.351 342.671C787.905 434.033 921.207 418.339 932.235 521.68C945.405 645.09 785.11 646.146 707.918 742.036C647.373 817.246 664.796 964.257 570.756 948.285C511.464 938.214 513.637 867.503 460.741 838.35C369.734 788.194 256.238 924.158 195.941 838.35C138.916 757.197 296.011 683.135 258.807 590.754C230.398 520.209 116.499 540.479 113.073 464.28Z" fill="#F4EAB4"/>
<path d="M428.834 160.486C428.834 160.486 346.546 138.664 320.047 172.184C280.334 222.417 367.59 323.878 342.857 388.004C329.198 423.419 275.011 457.605 275.011 457.605M285.539 660.558C285.539 660.558 199.119 754.283 231.145 805.608C268.397 865.308 339.256 766.625 408.949 776.364C432.705 779.684 468.606 790.986 468.606 790.986M516.566 116.036C516.566 116.036 555.341 379.143 483.228 375.137C429.325 372.142 359.426 310.462 394.327 269.274C413.859 246.223 468.606 247.633 468.606 247.633M636.466 254.652C636.466 254.652 678.786 327.131 723.028 369.288C761.512 405.958 808.669 411.615 835.325 457.605C865.262 509.257 883.87 513.168 883.87 513.168M342.857 214.295C303.145 264.528 390.4 365.989 365.668 430.116M468.606 101.999C428.894 152.232 516.149 253.692 491.416 317.819M327.066 734.837C327.066 734.837 348.35 651.472 334.669 600.9C314.949 528.004 204.826 457.605 204.826 457.605M546.98 197.334C546.98 197.334 568.208 379.143 496.096 375.137M579.733 214.295C579.733 214.295 701.596 387.958 745.839 430.116C784.322 466.785 800.344 437.51 827 483.5C856.937 535.152 810.76 524.866 810.76 524.866M622.429 369.288C660.913 405.958 712.749 392.899 739.405 438.889C769.342 490.541 793.799 620.786 793.799 620.786M270.332 795.665C270.332 795.665 261.707 766.341 262.144 747.12C263.218 699.9 320.632 641.257 320.632 641.257M432.929 752.384C432.929 752.384 505.101 763.956 534.113 795.665C563.564 827.855 536.463 872 568.036 902.113C631.657 962.794 613.372 765.868 676.823 705.009C699.146 683.598 739.405 656.464 739.405 656.464M641.73 590.372C641.73 590.372 630.255 554.178 610.732 546.506C577.639 533.503 543.484 578.017 548.735 613.183C553.787 647.021 589.043 668.033 622.429 660.558C647.805 654.876 660.813 637.79 669.22 613.183C683.848 570.366 653.162 528.882 610.732 513.168C548.89 490.266 479.883 573.24 496.096 637.163C509.512 690.06 561.6 722.906 614.826 710.857C653.435 702.118 671.67 677.077 688.521 641.257C700.096 616.651 703.894 599.902 701.388 572.826C696.131 516.038 661.446 477.465 606.638 461.699C519.404 436.605 488.08 548.175 443.456 627.22C429.842 651.336 414.516 663.877 413.628 691.556C411.48 758.463 506.984 754.696 573.884 752.384C589.995 751.827 614.826 747.12 614.826 747.12M435.853 511.999C435.853 511.999 434.523 567.262 408.949 579.845C373.597 597.237 363.092 488.677 401.345 479.245C422.174 474.11 436.591 483.462 453.399 496.792C499.647 533.471 453.472 602.503 408.949 641.257C313.674 724.185 364.552 418.02 388.5 409" stroke="#D9CA7E" stroke-width="3"/>
<path d="M560.03 268.863C609.813 268.642 588.985 353.405 636.17 369.015C669.066 379.898 691.14 353.278 724.731 361.878C824.515 387.425 790.327 566.971 702.199 619.161C672.685 636.64 648.005 627.366 617.031 642.238C561.777 668.769 567.876 747.997 506.429 752.044C433.048 756.876 436.261 662.032 381.337 614.072C338.258 576.455 250.802 583.237 262.511 527.993C269.893 493.162 311.706 496.142 330.233 465.551C362.108 412.92 284.327 342.525 336.575 308.915C385.988 277.129 426.074 371.829 481.66 352.037C524.107 336.923 514.834 269.063 560.03 268.863Z" fill="#AE6E6E" fill-opacity="0.83"/>
<path d="M460.741 838.35C369.733 788.194 256.238 924.158 195.941 838.35C195.941 838.35 380.967 740.368 492.001 779.873C534.072 794.841 546.6 828.986 590.261 838.35C712.263 864.515 657.522 603.24 790.29 589.203C859.937 581.839 817.779 411.984 817.779 411.984C817.779 411.984 940.019 456.435 932.235 521.68C945.405 645.089 785.11 646.146 707.918 742.036C647.373 817.246 664.796 964.257 570.756 948.285C511.464 938.214 513.637 867.502 460.741 838.35Z" fill="#B8B18C" fill-opacity="0.24"/>
<path d="M617.031 642.238C561.777 668.769 567.876 747.997 506.428 752.044C444.981 756.09 445.796 694.481 445.796 694.481C445.796 694.481 507.114 696.241 533.528 672.84C563.054 646.682 537.035 605.716 563.357 576.335C593.724 542.438 654.706 579.265 673.314 537.733C686.622 508.031 624.731 365.231 636.17 369.016C669.066 379.898 691.14 353.278 724.731 361.878C824.515 387.425 790.327 566.971 702.199 619.161C672.685 636.64 648.005 627.366 617.031 642.238Z" fill="#915B5B" fill-opacity="0.24"/>
</svg>
