<svg width="462" height="978" viewBox="0 0 462 978" fill="none" xmlns="http://www.w3.org/2000/svg">
<path fill-rule="evenodd" clip-rule="evenodd" d="M437 348L404 430L307.5 500L227 541.5L138.5 500L50 413.5L27.5 348C27.5 348 38.4023 334.791 55.0334 319C76.8795 298.258 108.61 273.062 138.5 267.5C181.426 259.513 206.36 290.408 232.052 322.244C235.179 326.118 238.317 330.006 241.5 333.84C262.884 359.597 286.302 382.896 322 383C368.944 383.137 437 348 437 348Z" fill="#951515"/>
<path d="M322 383C368.944 383.137 437 348 437 348C437 348 389.87 323.89 357 319C312.019 312.309 241.5 333.84 241.5 333.84C262.884 359.597 286.302 382.896 322 383Z" fill="#660C0C"/>
<path d="M27.5 348C27.5 348 38.4023 334.791 55.0334 319L27.5 267.5V348Z" fill="#660C0C"/>
<path d="M119.082 0.0907288C56.07 146.439 28.6656 269.761 44.2906 347.168C51.8996 384.863 69.8099 415.74 100.047 441.139C129.885 466.203 174 496 230.886 501.875C290.758 496 331.888 466.203 361.726 441.139C391.963 415.74 409.873 384.863 417.482 347.168C433.107 269.761 405.703 146.439 342.691 0.0907288H119.082Z" fill="#F3F4F4" fill-opacity="0.15"/>
<path fill-rule="evenodd" clip-rule="evenodd" d="M230.886 978H419.913C424.351 978 427.949 974.402 427.949 969.964C427.949 963.15 422.832 957.422 416.06 956.656L313.138 945.023C277.746 941.023 251 911.084 251 875.466V613.733C251 568.879 281.576 530.963 322.301 512.166C347.398 500.583 369.103 487.182 387.454 471.767C424.739 440.448 447.319 401.512 456.691 355.082C475.029 264.239 442.357 146.242 379.43 0.0907288L342.691 0.0907288C405.703 146.439 433.107 269.761 417.482 347.168C409.873 384.863 391.963 415.74 361.726 441.139C331.888 466.203 290.758 496 230.886 501.875V978Z" fill="#E6EDEF"/>
<path d="M148.635 945.023L45.7128 956.656C38.9413 957.422 33.8241 963.15 33.8241 969.964C33.8241 974.402 37.4218 978 41.8598 978H230.886V501.875C174 496 129.885 466.203 100.047 441.139C69.8099 415.74 51.8996 384.863 44.2906 347.168C28.6656 269.761 56.07 146.439 119.082 0.0907288L82.3428 0.0907288C19.4156 146.242 -13.2557 264.239 5.08147 355.082C14.4536 401.512 37.0339 440.448 74.3189 471.767C92.6698 487.182 114.375 500.583 139.472 512.166C180.197 530.963 210.773 568.879 210.773 613.733V875.466C210.773 911.084 184.027 941.023 148.635 945.023Z" fill="white"/>
</svg>
